<svg id="Layer_1" data-name="Layer 1" xmlns="http://www.w3.org/2000/svg" viewBox="0 0 38.8 16.66"><title>checkbox</title><rect x="0.35" y="0.35" width="15.96" height="15.96" rx="2.22" ry="2.22" fill="#fff" stroke="#d2d5d8" stroke-miterlimit="10" stroke-width="0.7"/><rect x="22.49" y="0.35" width="15.96" height="15.96" rx="2.22" ry="2.22" fill="#fff" stroke="#a7b1b5" stroke-miterlimit="10" stroke-width="0.7"/><path d="M34,5L30,9.73a0.35,0.35,0,0,1-.49,0l0,0-1.88-2a0.59,0.59,0,0,0-.84,0l-0.13.12a0.59,0.59,0,0,0,0,.84L28.9,11.1l0.48,0.53a0.59,0.59,0,0,0,.83.06l0.06-.06,0.46-.54L35.1,5.92A0.59,0.59,0,0,0,35,5.09h0L34.86,5A0.59,0.59,0,0,0,34,5Z" transform="translate(-0.35 -0.23)" fill="#04ad49" stroke="#04ad49" stroke-miterlimit="10" stroke-width="0.7"/></svg>